<!DOCTYPE svg PUBLIC "-//W3C//DTD SVG 20010904//EN" "http://www.w3.org/TR/2001/REC-SVG-20010904/DTD/svg10.dtd">
<svg version="1.0" xmlns="http://www.w3.org/2000/svg" width="222px" height="227px" viewBox="0 0 2220 2270" preserveAspectRatio="xMidYMid meet">
<g id="layer101" fill="#060807" stroke="none">
<path d="M808 2250 c-293 -53 -559 -289 -663 -589 -42 -120 -55 -202 -55 -350 0 -162 22 -266 87 -418 61 -139 179 -290 284 -362 35 -24 36 -25 45 -125 8 -84 16 -113 47 -176 20 -41 46 -86 57 -100 17 -21 21 -23 30 -10 5 8 10 34 10 58 0 47 16 57 26 15 11 -49 32 -73 64 -73 35 0 55 25 76 98 l15 52 95 0 c93 0 94 0 94 -24 0 -23 49 -76 71 -76 5 0 9 -29 9 -64 0 -80 6 -96 35 -96 29 0 35 16 35 94 l0 63 28 -5 c15 -2 37 -13 49 -24 12 -11 27 -17 33 -13 6 4 18 1 27 -6 13 -11 19 -9 37 13 12 15 36 29 56 33 31 5 37 3 52 -24 14 -26 20 -29 40 -22 18 7 23 16 23 44 0 20 6 41 13 48 6 7 12 21 12 31 0 14 -8 18 -38 18 -32 0 -41 5 -50 25 -19 42 -15 50 26 50 20 1 44 4 53 8 11 6 19 0 27 -18 6 -14 20 -25 29 -25 14 -1 12 -5 -9 -21 -33 -24 -35 -40 -9 -63 25 -23 54 -14 82 25 25 36 19 59 -16 59 -22 0 -24 2 -14 18 9 14 8 25 -5 50 -16 30 -15 33 4 52 24 24 25 33 5 50 -12 10 -22 10 -39 2 -20 -9 -27 -7 -42 9 -14 16 -28 20 -56 17 -56 -5 -49 16 32 97 77 76 168 205 207 293 36 82 72 217 81 302 10 105 -3 301 -27 393 -78 299 -297 543 -578 639 -77 27 -104 31 -218 34 -71 2 -151 -1 -177 -6z m702 -1834 c0 -8 -5 -18 -11 -22 -14 -8 -33 11 -25 25 10 16 36 13 36 -3z m-336 -152 c8 -22 6 -23 -22 -13 -13 5 -20 13 -17 19 10 15 32 12 39 -6z"/>
<path d="M1940 1540 c-36 -3 -71 -9 -77 -13 -26 -17 -8 -192 22 -217 21 -18 165 3 182 26 9 12 11 38 6 88 -10 121 -14 125 -133 116z m48 -73 c19 -13 15 -65 -7 -77 -47 -25 -71 -8 -71 50 0 37 39 51 78 27z"/>
<path d="M1942 1238 c-7 -7 -12 -20 -12 -29 0 -14 -8 -17 -42 -16 -38 2 -43 -1 -52 -26 -15 -42 5 -53 140 -78 114 -21 154 -21 154 -1 0 8 -89 55 -127 66 -17 5 -20 13 -17 32 9 52 -15 81 -44 52z"/>
<path d="M1902 1051 c-16 -37 -18 -39 -62 -37 -42 1 -45 -1 -48 -26 -3 -21 2 -30 20 -38 31 -13 182 -40 224 -40 54 0 42 26 -25 56 -56 25 -58 28 -58 64 0 70 -26 81 -51 21z"/>
<path d="M1877 865 c-4 -8 -4 -22 0 -31 5 -14 3 -15 -16 -5 -30 16 -58 5 -76 -30 -19 -36 -7 -64 30 -73 37 -9 77 13 100 57 18 34 19 39 5 64 -18 32 -35 39 -43 18z"/>
<path d="M1660 705 c-16 -20 -7 -31 51 -60 27 -14 72 -50 100 -80 43 -45 55 -52 71 -44 46 25 7 91 -94 158 -63 43 -107 52 -128 26z"/>
<path d="M1670 590 c-41 -41 -21 -90 52 -125 63 -30 68 -31 61 -5 -4 16 -2 19 12 14 14 -6 16 -3 10 16 -35 109 -87 148 -135 100z"/>
</g>
<g id="layer102" fill="#55322f" stroke="none">
<path d="M808 2250 c-293 -53 -559 -289 -663 -589 -42 -120 -55 -202 -55 -350 0 -162 22 -266 87 -418 61 -141 179 -291 286 -363 34 -23 37 -29 39 -75 1 -27 4 40 8 150 6 167 10 213 30 278 13 42 25 75 28 73 2 -3 10 -37 18 -77 7 -40 17 -76 21 -80 5 -5 85 16 178 46 94 30 182 55 197 55 14 0 50 -9 80 -19 106 -39 280 -92 285 -88 2 3 12 44 22 93 l17 88 23 -75 c18 -58 24 -105 28 -221 3 -82 8 -148 12 -148 16 0 154 153 201 223 86 130 143 287 158 437 10 105 -3 301 -27 393 -78 299 -297 543 -578 639 -77 27 -104 31 -218 34 -71 2 -151 -1 -177 -6z m391 -485 c3 -6 -6 3 -21 20 -15 16 -28 34 -28 39 0 8 36 -36 49 -59z"/>
<path d="M1903 1303 c9 -2 25 -2 35 0 9 3 1 5 -18 5 -19 0 -27 -2 -17 -5z"/>
<path d="M1831 1155 c-1 -25 17 -45 39 -44 10 0 9 3 -5 8 -11 4 -23 19 -26 32 -6 21 -7 21 -8 4z"/>
<path d="M2068 1073 c12 -2 30 -2 40 0 9 3 -1 5 -23 4 -22 0 -30 -2 -17 -4z"/>
<path d="M1797 1013 c-9 -9 -9 -51 1 -56 4 -3 7 10 7 29 0 19 0 34 -1 34 0 0 -4 -3 -7 -7z"/>
<path d="M2003 913 c15 -2 37 -2 50 0 12 2 0 4 -28 4 -27 0 -38 -2 -22 -4z"/>
<path d="M1827 793 c-12 -12 -7 -30 8 -30 12 0 12 3 2 16 -10 12 -9 14 6 8 11 -4 16 -3 12 3 -7 12 -19 13 -28 3z"/>
<path d="M745 751 c-44 -11 -82 -38 -105 -76 -21 -35 -26 -80 -10 -90 10 -6 158 43 253 84 115 50 4 116 -138 82z m33 -98 c-2 -9 -10 -18 -18 -21 -8 -3 -12 -1 -8 3 4 5 3 14 -3 22 -9 10 -7 13 11 13 15 0 20 -5 18 -17z"/>
<path d="M1041 741 c-39 -39 -25 -52 119 -108 74 -28 143 -52 153 -52 29 -1 23 70 -9 109 -39 45 -78 61 -164 67 -70 5 -79 4 -99 -16z m184 -80 c0 -8 -6 -16 -14 -19 -8 -3 -11 0 -7 7 4 6 2 11 -3 11 -6 0 -11 5 -11 11 0 6 8 9 18 7 9 -2 17 -10 17 -17z"/>
<path d="M1830 647 c0 -2 15 -16 33 -33 l32 -29 -29 33 c-28 30 -36 37 -36 29z"/>
<path d="M1750 524 c0 -9 5 -14 12 -12 18 6 21 28 4 28 -9 0 -16 -7 -16 -16z"/>
<path d="M1710 495 c0 -8 7 -15 15 -15 8 0 15 7 15 15 0 8 -7 15 -15 15 -8 0 -15 -7 -15 -15z"/>
<path d="M1443 435 c0 -27 2 -38 4 -22 2 15 2 37 0 50 -2 12 -4 0 -4 -28z"/>
<path d="M661 293 c-14 -48 -14 -60 0 -69 8 -5 10 1 7 20 -4 17 -2 24 4 18 5 -5 9 -29 10 -53 0 -59 20 -89 58 -89 36 0 62 37 80 109 l11 46 67 -2 67 -1 -75 8 c-65 6 -152 26 -204 46 -10 4 -18 -5 -25 -33z"/>
<path d="M1220 311 c-28 -10 -46 -23 -48 -35 -2 -12 1 -16 9 -10 8 4 10 3 5 -5 -4 -6 6 -31 22 -54 l29 -43 -26 2 c-18 1 -20 0 -5 -3 12 -2 30 -13 40 -24 9 -10 22 -19 28 -19 6 0 4 5 -4 10 -12 8 -13 10 -1 10 8 0 23 -8 34 -18 19 -17 19 -16 14 13 -3 17 -9 57 -12 89 -8 65 -20 107 -32 105 -5 -1 -28 -9 -53 -18z"/>
<path d="M1398 239 c-15 -33 -25 -59 -23 -59 8 0 56 101 53 109 -2 5 -15 -18 -30 -50z"/>
<path d="M1013 273 c9 -2 25 -2 35 0 9 3 1 5 -18 5 -19 0 -27 -2 -17 -5z"/>
</g>
<g id="layer103" fill="#54443c" stroke="none">
<path d="M808 2250 c-343 -62 -624 -355 -703 -731 -22 -105 -20 -323 5 -426 36 -151 100 -291 179 -391 32 -40 45 -49 63 -46 19 4 20 3 4 -4 -17 -8 -16 -10 10 -38 50 -53 123 -106 135 -99 15 10 7 271 -9 287 -7 7 -12 19 -12 26 0 8 -19 36 -42 62 -110 119 -137 158 -151 210 -8 30 -1 24 24 -20 13 -22 27 -40 31 -40 5 0 7 -3 5 -7 -3 -5 23 -42 58 -83 43 -52 71 -77 91 -81 16 -4 21 -7 12 -8 -10 0 -18 -5 -18 -11 0 -5 7 -7 15 -4 11 5 14 2 9 -12 -5 -13 -4 -16 3 -9 5 6 18 38 28 73 10 34 24 67 31 73 7 6 10 18 7 27 -4 14 -3 14 5 3 7 -10 7 -20 -1 -32 -8 -13 -8 -37 1 -91 7 -40 16 -76 20 -80 4 -3 77 16 162 44 85 28 173 53 195 55 29 3 87 -12 210 -51 93 -30 171 -54 173 -52 1 2 10 43 19 92 l16 88 19 -54 c30 -88 37 -128 42 -254 3 -65 8 -121 11 -124 11 -11 137 125 191 206 66 99 97 165 130 281 32 113 41 209 32 356 -8 142 -33 245 -86 359 -110 234 -289 399 -519 478 -77 27 -104 31 -218 34 -71 2 -151 -1 -177 -6z m-60 -110 c39 -24 57 -59 48 -95 -5 -21 -10 -24 -21 -15 -8 7 -16 7 -19 1 -9 -13 -44 -2 -51 17 -5 14 -4 15 6 5 17 -17 49 -16 49 1 0 7 -9 25 -21 40 -11 14 -18 30 -14 36 7 11 -29 20 -65 17 -14 -2 -24 -8 -22 -16 1 -7 -2 -10 -7 -7 -11 7 -69 -49 -68 -66 1 -38 -4 -59 -14 -53 -6 4 -8 14 -5 22 4 9 1 13 -6 10 -7 -2 -12 -16 -10 -31 2 -14 -4 -36 -13 -49 -15 -21 -15 -21 -9 12 6 31 6 33 -13 23 -23 -12 -24 -42 -2 -68 11 -14 11 -16 0 -10 -8 5 -17 3 -23 -5 -7 -10 -8 -8 -5 9 3 12 1 22 -4 22 -26 0 0 41 82 125 87 90 94 95 133 95 23 0 55 -9 74 -20z m527 3 c19 -15 19 -15 -5 -9 -68 18 -81 19 -78 6 2 -8 -11 -23 -29 -34 -18 -12 -32 -24 -33 -28 0 -17 50 -19 80 -3 18 9 29 12 26 6 -13 -21 -68 -41 -82 -30 -7 6 -17 8 -22 6 -4 -3 -9 10 -10 29 -2 20 2 34 9 34 6 0 22 9 36 20 31 24 80 25 108 3z m-585 -23 c-7 -4 -9 -16 -5 -29 6 -20 5 -20 -19 -10 -14 7 -23 16 -20 21 3 4 9 6 14 3 5 -3 11 4 15 15 4 11 11 17 17 14 7 -4 6 -9 -2 -14z m453 -148 c6 -7 6 -12 1 -11 -21 4 -28 -2 -14 -11 11 -7 11 -10 2 -10 -7 0 -10 -5 -6 -12 4 -7 3 -8 -4 -4 -13 8 -16 45 -5 72 5 14 8 15 11 3 3 -7 9 -20 15 -27z m-563 -41 c-6 -12 -15 -21 -21 -21 -6 0 -3 7 5 16 9 8 16 20 16 26 0 6 3 9 6 6 3 -4 1 -16 -6 -27z m620 -38 c0 10 -5 27 -10 38 -10 17 -7 19 22 19 24 0 29 -3 18 -9 -8 -6 -17 -8 -20 -6 -3 2 -4 -15 -2 -37 l4 -41 -25 19 c-15 11 -25 26 -24 34 1 8 -3 14 -10 13 -8 -2 -10 4 -6 13 5 13 12 7 29 -22 16 -25 24 -33 24 -21z m-755 -20 c-2 -67 8 -103 30 -103 8 0 14 -3 14 -7 -3 -19 2 -31 14 -30 6 0 26 -1 42 -2 23 -1 27 -3 15 -11 -10 -7 0 -8 35 -5 36 4 44 3 30 -4 -11 -5 -39 -10 -62 -10 -91 -2 -155 102 -127 207 10 34 12 27 9 -35z m729 -65 c10 -15 22 -25 27 -22 5 3 6 -3 2 -13 -3 -10 -2 -15 2 -11 5 5 15 -1 22 -12 8 -11 19 -18 24 -15 5 4 9 1 9 -5 0 -7 6 -10 13 -7 7 3 21 -1 32 -9 16 -12 16 -14 3 -14 -32 0 -63 18 -106 59 -39 38 -83 115 -81 144 0 7 8 -6 17 -28 9 -22 25 -52 36 -67z m-825 -65 c-1 -24 -3 -29 -6 -15 -2 12 -9 22 -15 22 -6 0 -6 6 2 15 18 22 20 19 19 -22z m1214 -15 c13 -35 14 -39 2 -24 -8 11 -15 24 -15 29 0 4 -4 5 -10 2 -5 -3 -10 3 -10 14 0 34 16 24 33 -21z m-1233 -18 c0 -5 -11 -20 -25 -34 -29 -29 -35 -56 -7 -35 15 13 16 12 4 -3 -8 -9 -11 -22 -8 -27 4 -6 -3 -8 -17 -6 -22 4 -24 0 -36 -68 -13 -77 -13 -75 -10 -187 2 -57 4 -68 10 -45 l8 30 -1 -30 c-1 -30 10 -92 19 -108 3 -4 11 -3 19 4 9 7 14 8 14 1 0 -6 -4 -14 -10 -17 -5 -3 -10 -18 -10 -33 -1 -23 -3 -20 -19 18 -49 121 -63 256 -37 368 16 69 67 168 80 155 3 -3 6 4 6 16 0 12 4 19 10 16 6 -3 10 -10 10 -15z m20 -57 c2 -149 22 -261 66 -367 5 -12 4 -17 -3 -13 -16 10 -1 -106 17 -129 6 -6 7 -14 3 -17 -3 -4 2 -7 11 -7 17 0 16 3 -3 35 -11 19 -16 35 -11 35 6 0 10 -5 10 -12 0 -6 3 -8 7 -5 3 4 0 15 -9 24 -17 21 -22 67 -7 57 6 -3 9 -14 6 -24 -3 -11 0 -21 7 -23 6 -3 24 -28 39 -56 15 -29 43 -66 62 -83 19 -16 35 -35 35 -42 0 -6 -5 -3 -11 7 -6 9 -15 14 -21 11 -6 -4 -8 -3 -5 3 4 6 1 16 -7 22 -11 9 -15 9 -19 -1 -3 -8 -6 -6 -6 5 -1 10 -6 15 -11 12 -6 -4 -7 -11 -4 -17 4 -7 2 -8 -5 -4 -9 6 -9 11 0 22 9 11 9 14 0 14 -7 0 -9 5 -6 10 3 6 2 10 -3 10 -5 0 -15 -11 -22 -25 -12 -23 -14 -23 -25 -7 -18 26 -40 120 -69 292 -3 14 -9 38 -16 54 -6 16 -8 36 -5 46 3 10 1 29 -5 44 -6 18 -6 25 0 21 11 -7 14 28 3 38 -9 10 -10 107 -1 107 4 0 8 -17 8 -37z m1317 -330 c-2 -21 -4 -4 -4 37 0 41 2 58 4 38 2 -21 2 -55 0 -75z"/>
<path d="M730 2120 c0 -4 6 -13 14 -20 12 -9 15 -8 13 8 -1 17 -27 28 -27 12z"/>
<path d="M772 2065 c-1 -14 2 -25 6 -25 4 0 8 11 8 25 2 33 -11 33 -14 0z"/>
<path d="M1151 2120 c-30 -26 -14 -26 19 0 14 11 21 20 15 19 -5 0 -21 -9 -34 -19z"/>
<path d="M742 748 c-54 -12 -109 -64 -118 -114 -11 -59 3 -61 118 -19 176 65 190 72 186 97 -6 44 -84 59 -186 36z m36 -95 c-2 -9 -9 -18 -17 -21 -8 -3 -11 0 -7 7 4 6 2 11 -3 11 -6 0 -11 5 -11 10 0 6 9 10 21 10 14 0 19 -5 17 -17z"/>
<path d="M1055 749 c-49 -30 -46 -52 13 -77 107 -46 242 -93 252 -87 17 11 11 61 -13 96 -12 19 -39 42 -59 52 -46 23 -165 32 -193 16z m173 -86 c-2 -9 -9 -18 -17 -21 -8 -3 -11 0 -7 7 4 6 2 11 -3 11 -6 0 -11 5 -11 10 0 6 9 10 21 10 14 0 19 -5 17 -17z"/>
<path d="M667 309 c-4 -13 -1 -29 5 -36 6 -8 12 -33 12 -57 1 -24 4 -39 8 -33 4 7 8 10 9 7 0 -3 2 -13 4 -22 2 -10 -1 -18 -7 -18 -6 0 -5 -6 2 -15 17 -20 64 -19 81 2 9 11 10 14 2 9 -9 -5 -11 -2 -7 8 3 9 10 14 14 11 11 -7 33 61 25 75 -3 5 -1 10 5 10 6 0 10 7 8 16 -2 11 -24 23 -63 34 -33 10 -67 20 -76 24 -12 5 -18 1 -22 -15z m77 -171 c7 -5 5 -8 -5 -8 -22 0 -29 9 -21 28 5 13 6 14 10 1 3 -7 10 -17 16 -21z"/>
<path d="M1227 311 c-27 -9 -45 -20 -41 -24 5 -4 10 -20 12 -35 4 -35 29 -72 47 -72 8 0 15 -9 15 -19 0 -15 6 -19 20 -16 11 2 18 0 15 -5 -3 -5 -1 -11 5 -15 20 -13 3 176 -19 196 -3 4 -28 -1 -54 -10z"/>
</g>
<g id="layer104" fill="#c40708" stroke="none">
<path d="M808 2250 c-343 -62 -624 -355 -703 -731 -22 -105 -20 -323 5 -426 36 -151 100 -291 179 -391 32 -40 45 -49 63 -46 19 4 20 3 4 -4 -17 -8 -16 -10 10 -38 50 -53 123 -106 135 -99 15 10 7 271 -9 287 -7 7 -12 19 -12 26 0 8 -19 36 -42 62 -118 129 -122 134 -170 260 -40 105 -46 130 -54 226 -5 68 -2 109 10 163 15 63 57 150 79 159 4 2 7 10 7 18 0 20 18 17 23 -3 4 -14 5 -13 6 4 0 12 -5 23 -11 26 -10 3 -8 10 5 23 16 17 17 15 17 -66 0 -113 17 -262 36 -329 22 -77 91 -219 130 -267 18 -23 30 -45 26 -49 -4 -5 -2 -5 4 -2 6 4 24 -5 40 -19 16 -15 23 -23 17 -20 -23 13 -14 -20 17 -62 31 -44 37 -82 20 -127 -9 -22 -8 -26 4 -22 76 29 309 97 334 97 17 0 106 -24 197 -54 188 -61 175 -64 189 34 4 25 10 59 13 75 l6 30 14 -40 c28 -80 43 -163 48 -280 4 -66 8 -122 11 -124 10 -10 138 129 190 207 66 99 97 165 130 281 32 113 41 209 32 356 -8 142 -33 245 -86 359 -110 234 -289 399 -519 478 -77 27 -104 31 -218 34 -71 2 -151 -1 -177 -6z m-61 -110 c17 -10 37 -28 43 -40 14 -27 3 -115 -14 -101 -6 4 -20 5 -31 0 -42 -17 -66 -9 -106 33 l-39 42 -21 -21 c-25 -25 -20 -77 6 -67 8 4 15 1 15 -6 0 -6 -4 -9 -9 -5 -11 6 -31 -25 -31 -47 1 -7 6 -3 14 10 11 21 14 22 26 7 12 -15 14 -15 22 -1 13 23 38 20 38 -4 0 -22 15 -27 23 -7 3 6 6 -1 6 -18 1 -16 6 -37 12 -45 8 -11 9 -5 6 26 -4 34 -2 41 12 40 9 0 23 14 33 34 10 19 18 29 18 22 0 -20 -29 -72 -40 -72 -6 0 -10 -12 -10 -27 0 -16 -4 -35 -10 -43 -7 -11 -11 -9 -19 13 -6 16 -11 32 -11 37 0 14 -28 20 -34 7 -3 -7 -3 0 0 16 9 42 -13 33 -25 -10 -15 -51 -13 -62 4 -39 8 11 15 15 15 9 0 -6 -6 -16 -14 -22 -19 -16 -28 1 -20 35 9 36 -13 49 -38 21 -19 -22 -19 -22 -13 25 5 39 4 47 -8 42 -41 -16 -58 -165 -23 -203 10 -11 15 -24 12 -29 -7 -11 45 -32 78 -32 12 0 32 8 45 17 14 9 21 11 16 4 -11 -20 -70 -41 -110 -41 -106 0 -161 105 -123 234 9 29 38 67 102 134 84 87 91 92 130 92 23 0 55 -9 73 -20z m522 8 c43 -26 -19 -126 -83 -133 -11 -1 -26 -3 -33 -4 -6 0 -11 -10 -10 -21 1 -12 7 -18 13 -16 7 3 18 -2 24 -10 7 -8 22 -14 33 -14 11 0 26 -8 33 -17 7 -10 13 -13 14 -8 0 15 -13 31 -30 38 -12 4 -12 6 2 6 18 1 48 -46 48 -74 0 -24 -19 -18 -30 10 -12 31 -30 33 -31 3 -4 -72 22 -132 76 -175 19 -15 35 -31 35 -34 0 -4 -19 -2 -42 4 -52 13 -121 80 -151 145 -14 31 -21 68 -21 109 -1 35 -5 63 -11 63 -5 0 -4 5 3 12 7 7 12 29 12 50 0 21 5 38 11 38 6 0 22 9 36 20 29 22 74 26 102 8z m79 -105 c4 -49 -16 -70 -47 -53 -13 7 -21 7 -21 1 0 -13 31 -30 45 -25 6 2 16 -5 23 -16 15 -24 -2 -27 -31 -5 -11 7 -26 11 -35 8 -13 -4 -14 -3 -3 5 9 7 10 12 2 16 -15 10 -14 39 2 33 6 -3 20 -8 29 -12 23 -9 35 37 19 72 -9 19 -9 24 1 21 7 -3 14 -23 16 -45z m-619 -252 c-36 -45 -48 -54 -24 -18 8 13 12 27 8 32 -5 4 -3 5 4 1 7 -4 18 2 25 13 7 11 14 18 16 16 2 -2 -11 -22 -29 -44z m735 -5 c-7 -31 -67 -86 -92 -85 -11 0 -9 4 8 10 38 15 68 48 75 81 4 16 9 27 11 25 3 -3 2 -16 -2 -31z m99 -58 c10 -25 11 -37 4 -28 -6 8 -20 16 -30 18 -16 3 -18 -3 -13 -60 l5 -63 -11 65 c-7 47 -7 65 1 68 6 2 11 12 11 23 0 32 16 21 33 -23z m-16 -300 c-2 -18 -4 -6 -4 27 0 33 2 48 4 33 2 -15 2 -42 0 -60z m120 -90 c-2 -29 -3 -8 -3 47 0 55 1 79 3 53 2 -26 2 -71 0 -100z m-1153 -43 l27 -40 -30 35 c-17 19 -31 39 -31 44 0 5 1 7 3 5 2 -2 15 -22 31 -44z m1019 -16 c-5 -5 -7 7 -4 29 5 34 6 35 9 8 2 -16 0 -32 -5 -37z m-113 37 c0 -8 -9 -24 -21 -37 l-21 -24 16 25 c25 38 19 42 -20 15 -20 -14 -42 -25 -48 -25 -6 1 6 10 26 20 20 11 40 24 43 30 9 15 25 12 25 -4z m-133 -33 c-18 -5 -18 -5 0 -26 l18 -22 -22 19 c-13 11 -23 23 -23 28 0 4 10 7 23 7 18 -1 18 -2 4 -6z m-534 -10 c-7 -2 -13 -9 -13 -14 0 -6 5 -7 12 -3 7 4 8 3 4 -5 -9 -14 -26 -5 -26 15 0 8 8 14 18 13 10 0 12 -3 5 -6z m137 -29 c-8 -8 -23 -20 -34 -25 -13 -7 -9 -1 9 15 34 29 43 33 25 10z m117 9 c-18 -5 -18 -5 0 -26 l18 -22 -22 19 c-24 20 -22 37 5 35 15 -1 14 -2 -1 -6z m505 -55 c-7 -29 -14 -71 -15 -93 -4 -39 -4 -39 -5 7 -1 26 -6 50 -12 53 -5 3 -8 0 -7 -7 2 -7 2 -10 0 -5 -3 4 -9 5 -14 1 -5 -3 2 11 15 31 14 20 28 46 31 57 13 40 18 7 7 -44z m-927 -18 c4 -6 -1 -7 -12 -3 -14 5 -13 1 6 -20 25 -28 51 -27 29 1 -11 14 -10 14 12 -1 15 -11 44 -17 77 -17 40 0 53 -4 53 -14 0 -8 -4 -18 -10 -21 -5 -3 -7 0 -4 9 4 11 -7 15 -53 18 -69 5 -78 2 -61 -20 6 -10 -7 1 -30 23 -23 21 -42 43 -42 47 0 11 28 10 35 -2z m586 -57 c-11 -4 -8 -10 10 -26 l24 -19 -24 14 c-31 18 -39 38 -14 37 13 0 14 -2 4 -6z m-121 -19 c0 -15 -23 -45 -43 -55 -18 -10 -17 -7 6 14 15 14 27 29 27 32 0 3 -12 3 -27 0 -23 -4 -25 -4 -8 4 23 11 45 14 45 5z m247 -109 c-15 -14 -33 -25 -39 -25 -6 0 4 11 23 24 44 32 51 32 16 1z m-162 -65 c-11 -5 -29 -9 -40 -9 l-20 0 20 9 c11 5 29 9 40 9 l20 0 -20 -9z"/>
</g>
<g id="layer105" fill="#7f675f" stroke="none">
<path d="M1276 2095 c-7 -37 -51 -76 -90 -80 -11 -1 -26 -3 -33 -4 -6 0 -11 -10 -10 -21 1 -12 7 -18 13 -16 7 3 18 -2 24 -10 7 -8 22 -14 33 -14 11 0 26 -8 33 -17 7 -10 13 -13 14 -8 0 15 -13 31 -30 38 -12 4 -12 6 2 6 18 1 48 -46 48 -74 0 -24 -19 -18 -30 10 -12 31 -30 33 -31 3 -4 -72 22 -132 76 -175 19 -15 35 -31 35 -34 0 -4 -19 -2 -42 4 -52 13 -121 80 -151 145 -14 31 -21 68 -21 109 -1 37 -5 63 -11 63 -84 0 -258 9 -282 15 -31 7 -33 6 -33 -20 0 -21 -3 -25 -12 -17 -8 5 -22 6 -33 1 -42 -17 -66 -9 -106 33 l-39 42 -21 -21 c-25 -25 -20 -77 6 -67 8 4 15 1 15 -6 0 -6 -4 -9 -9 -5 -11 6 -31 -25 -31 -47 1 -7 6 -3 14 10 11 21 14 22 26 7 12 -15 14 -15 22 -1 13 23 38 20 38 -4 0 -22 15 -27 23 -7 3 6 6 -1 6 -18 1 -16 6 -37 12 -45 8 -11 9 -5 6 26 -4 34 -2 41 12 40 9 0 23 14 33 34 10 19 18 29 18 22 0 -20 -29 -72 -40 -72 -6 0 -10 -12 -10 -27 0 -16 -4 -35 -10 -43 -7 -11 -11 -9 -19 13 -6 16 -11 32 -11 37 0 14 -28 20 -34 7 -3 -7 -3 0 0 16 9 42 -13 33 -25 -10 -15 -51 -13 -62 4 -39 8 11 15 15 15 9 0 -6 -6 -16 -14 -22 -19 -16 -28 1 -20 35 9 36 -13 49 -38 21 -19 -22 -19 -22 -13 25 5 39 4 47 -8 42 -41 -16 -58 -165 -23 -203 10 -11 15 -24 12 -29 -7 -11 45 -32 78 -32 12 0 32 8 45 17 14 9 21 11 16 4 -11 -20 -70 -41 -110 -41 -108 0 -164 112 -120 241 l15 44 -30 -35 c-17 -19 -35 -40 -39 -46 -19 -24 -41 -139 -41 -212 0 -106 17 -256 36 -321 22 -77 91 -219 130 -267 18 -23 30 -45 26 -49 -4 -5 -2 -5 4 -2 6 4 24 -5 40 -19 16 -15 23 -23 17 -20 -23 13 -14 -20 17 -62 31 -44 37 -82 20 -127 -9 -22 -8 -26 4 -22 76 29 309 97 334 97 17 0 106 -24 197 -54 l166 -54 9 24 c5 13 12 47 16 76 12 92 18 96 39 27 10 -35 20 -67 22 -72 11 -20 143 180 176 265 52 133 57 158 57 282 0 115 -2 125 -33 196 -30 67 -99 181 -84 138 4 -12 2 -15 -9 -11 -13 5 -15 -4 -10 -58 l5 -64 -11 65 c-7 47 -7 65 1 68 13 4 15 42 2 42 -5 0 -11 -8 -13 -17 -2 -10 -8 8 -12 40 -5 37 -11 55 -18 51 -6 -4 -8 -3 -5 3 11 17 -36 120 -78 173 l-40 51 -3 -35 c-4 -44 -23 -61 -51 -46 -13 7 -21 7 -21 1 0 -13 31 -30 45 -25 6 2 16 -5 23 -16 15 -24 -2 -27 -31 -5 -11 7 -24 12 -30 11 -7 -2 -9 -1 -5 1 4 3 2 13 -4 23 -16 25 -5 35 22 20 37 -20 46 12 27 86 -4 16 -28 44 -37 44 -4 0 -11 -16 -14 -35z m-547 -304 c-36 -45 -48 -54 -24 -18 8 13 12 27 8 32 -5 4 -3 5 4 1 7 -4 18 2 25 13 7 11 14 18 16 16 2 -2 -11 -22 -29 -44z m735 -5 c-7 -31 -67 -86 -92 -85 -11 0 -9 4 8 10 38 15 68 48 75 81 4 16 9 27 11 25 3 -3 2 -16 -2 -31z m83 -358 c-2 -18 -4 -6 -4 27 0 33 2 48 4 33 2 -15 2 -42 0 -60z m-1033 -133 l27 -40 -30 35 c-17 19 -31 39 -31 44 0 5 1 7 3 5 2 -2 15 -22 31 -44z m1019 -16 c-5 -5 -7 7 -4 29 5 34 6 35 9 8 2 -16 0 -32 -5 -37z m-113 37 c0 -8 -9 -24 -21 -37 l-21 -24 16 25 c25 38 19 42 -20 15 -20 -14 -42 -25 -48 -25 -6 1 6 10 26 20 20 11 40 24 43 30 9 15 25 12 25 -4z m-133 -33 c-18 -5 -18 -5 0 -26 l18 -22 -22 19 c-13 11 -23 23 -23 28 0 4 10 7 23 7 18 -1 18 -2 4 -6z m-534 -10 c-7 -2 -13 -9 -13 -14 0 -6 5 -7 12 -3 7 4 8 3 4 -5 -9 -14 -26 -5 -26 15 0 8 8 14 18 13 10 0 12 -3 5 -6z m137 -29 c-8 -8 -23 -20 -34 -25 -13 -7 -9 -1 9 15 34 29 43 33 25 10z m117 9 c-18 -5 -18 -5 0 -26 l18 -22 -22 19 c-24 20 -22 37 5 35 15 -1 14 -2 -1 -6z m505 -55 c-7 -29 -14 -71 -15 -93 -4 -39 -4 -39 -5 7 -1 26 -6 50 -12 53 -5 3 -8 0 -7 -7 2 -7 2 -10 0 -5 -3 4 -9 5 -14 1 -5 -3 2 11 15 31 14 20 28 46 31 57 13 40 18 7 7 -44z m-927 -18 c4 -6 -1 -7 -12 -3 -14 5 -13 1 6 -20 25 -28 51 -27 29 1 -11 14 -10 14 12 -1 15 -11 44 -17 77 -17 40 0 53 -4 53 -14 0 -8 -4 -18 -10 -21 -5 -3 -7 0 -4 9 4 11 -7 15 -53 18 -69 5 -78 2 -61 -20 6 -10 -7 1 -30 23 -23 21 -42 43 -42 47 0 11 28 10 35 -2z m586 -57 c-11 -4 -8 -10 10 -26 l24 -19 -24 14 c-31 18 -39 38 -14 37 13 0 14 -2 4 -6z m-121 -19 c0 -15 -23 -45 -43 -55 -18 -10 -17 -7 6 14 15 14 27 29 27 32 0 3 -12 3 -27 0 -23 -4 -25 -4 -8 4 23 11 45 14 45 5z m247 -109 c-15 -14 -33 -25 -39 -25 -6 0 4 11 23 24 44 32 51 32 16 1z m-162 -65 c-11 -5 -29 -9 -40 -9 l-20 0 20 9 c11 5 29 9 40 9 l20 0 -20 -9z"/>
<path d="M686 2111 c-9 -14 33 -61 55 -61 26 0 24 16 -6 45 -25 26 -40 31 -49 16z"/>
<path d="M1166 2097 c-25 -21 -27 -25 -12 -30 23 -9 86 26 86 47 0 15 -48 3 -74 -17z"/>
<path d="M1160 1960 c0 -16 31 -73 36 -67 3 3 -2 21 -10 41 -15 35 -26 46 -26 26z"/>
<path d="M794 754 c-5 -1 -26 -5 -47 -9 -21 -3 -53 -20 -72 -37 -29 -25 -33 -32 -21 -42 7 -6 16 -24 19 -39 4 -23 1 -27 -12 -22 -11 4 -13 3 -6 -4 7 -7 26 -5 57 6 45 14 55 29 33 45 -14 10 10 32 25 23 6 -4 9 -16 7 -27 -4 -14 -2 -18 10 -14 8 3 17 6 19 6 2 0 4 8 4 18 0 13 2 14 9 4 12 -20 105 19 109 46 5 36 -70 61 -134 46z"/>
<path d="M1065 751 c-34 -14 -49 -39 -35 -55 11 -14 80 -45 110 -49 8 -2 20 -5 25 -9 27 -17 148 -57 156 -52 16 9 10 58 -11 92 -12 20 -38 41 -63 52 -49 21 -153 33 -182 21z m165 -91 c0 -11 -7 -20 -16 -20 -8 0 -12 5 -9 10 3 6 1 10 -4 10 -6 0 -11 5 -11 10 0 6 9 10 20 10 13 0 20 -7 20 -20z"/>
<path d="M503 580 c0 -36 2 -50 4 -32 2 17 2 47 0 65 -2 17 -4 3 -4 -33z"/>
<path d="M623 616 c1 -17 9 -31 17 -33 10 -3 11 -2 4 4 -7 4 -14 19 -17 33 -4 22 -5 21 -4 -4z"/>
<path d="M1248 316 c-19 -6 -28 -17 -28 -30 1 -26 58 -142 67 -138 4 2 11 -5 15 -15 4 -10 5 16 3 59 -2 42 -10 89 -17 105 -12 27 -16 28 -40 19z"/>
<path d="M686 313 c15 -3 22 -12 22 -26 0 -31 9 -67 22 -82 6 -7 8 -19 5 -27 -3 -8 2 -25 12 -37 18 -22 20 -22 33 -5 9 10 10 15 3 11 -8 -5 -7 7 4 37 12 30 20 41 25 33 5 -7 6 1 2 17 -5 22 -4 27 6 21 10 -6 10 -4 3 10 -10 18 -113 56 -143 53 -8 0 -5 -3 6 -5z"/>
</g>
<g id="layer106" fill="#808380" stroke="none">
<path d="M799 2037 c-1 -1 -2 -31 -3 -67 -3 -82 -30 -144 -90 -205 -54 -53 -80 -65 -145 -65 -109 0 -167 123 -117 245 l16 40 -30 -35 c-16 -19 -30 -41 -30 -47 0 -7 -4 -13 -9 -13 -4 0 -16 -33 -26 -72 -19 -78 -17 -229 6 -368 11 -70 72 -234 97 -263 9 -10 17 -24 18 -32 7 -46 107 -133 204 -178 107 -49 156 -60 228 -52 37 4 103 9 147 10 136 4 230 49 335 161 30 32 59 57 65 56 5 -2 7 -1 3 3 -4 4 9 35 28 70 49 88 56 202 25 400 -29 187 -31 195 -43 195 -6 0 -9 -3 -5 -6 12 -12 -31 -79 -63 -98 -45 -26 -118 -25 -162 2 -80 50 -138 155 -138 251 l0 53 -67 -4 c-60 -5 -122 0 -215 17 -16 2 -29 3 -29 2z m-262 -720 c18 -16 30 -18 63 -13 28 4 40 3 40 -6 0 -22 -33 -48 -62 -48 -37 0 -104 59 -95 84 7 19 19 15 54 -17z m883 0 c0 -7 -11 -29 -25 -50 -29 -42 -59 -48 -106 -20 -43 26 -38 46 9 39 30 -5 44 -2 72 18 40 29 50 31 50 13z m-633 -49 c26 -9 40 -9 68 1 45 16 63 6 38 -21 -10 -11 -30 -26 -44 -34 -24 -12 -32 -11 -70 10 -24 12 -45 30 -47 39 -4 20 10 21 55 5z m368 -8 c4 -6 -7 -24 -24 -40 -38 -38 -78 -39 -121 -4 -41 35 -27 52 30 35 33 -10 45 -9 67 3 34 18 40 19 48 6z m-543 -95 c27 -19 50 -25 87 -25 62 0 70 -23 15 -46 -32 -14 -39 -13 -72 3 -22 11 -36 24 -34 33 2 8 0 12 -4 7 -4 -4 -18 3 -31 15 -46 43 -19 52 39 13z m693 -50 c-38 -51 -58 -59 -100 -39 -19 9 -32 20 -29 25 3 5 -2 6 -10 3 -11 -4 -16 0 -16 11 0 14 7 15 44 10 46 -7 89 8 117 41 13 16 14 16 17 0 2 -9 -8 -32 -23 -51z m-394 -12 c36 -14 49 -15 87 -4 25 6 47 9 50 7 10 -11 -30 -57 -44 -52 -9 3 -12 1 -9 -4 7 -11 -14 -15 -55 -11 -31 3 -90 47 -90 67 0 18 10 18 61 -3z"/>
<path d="M1199 722 c-27 -13 -35 -24 -37 -50 -3 -29 1 -34 30 -46 59 -24 75 -27 76 -14 3 35 16 74 26 80 7 5 4 8 -7 8 -11 0 -15 4 -11 12 4 6 3 8 -4 4 -6 -3 -17 0 -25 8 -13 13 -19 13 -48 -2z m31 -62 c0 -11 -7 -20 -15 -20 -8 0 -15 2 -15 4 0 2 -3 11 -6 20 -4 12 0 16 15 16 14 0 21 -6 21 -20z"/>
<path d="M705 696 c-13 -13 -27 -21 -30 -17 -4 3 0 -11 8 -31 8 -20 13 -39 10 -42 -3 -2 11 0 31 6 20 6 33 14 28 17 -14 10 -8 46 8 46 9 0 15 -9 14 -23 0 -16 4 -21 13 -17 8 3 17 5 19 5 12 0 1 43 -16 60 -27 27 -56 25 -85 -4z"/>
</g>
<g id="layer107" fill="#b99c73" stroke="none">
<path d="M799 2037 c-1 -1 -2 -31 -3 -67 -3 -82 -30 -144 -90 -205 -54 -53 -80 -65 -146 -65 -106 0 -162 105 -121 226 l20 59 -29 -35 c-16 -19 -30 -41 -30 -47 0 -7 -4 -13 -9 -13 -4 0 -16 -33 -26 -72 -19 -78 -16 -230 6 -368 11 -69 72 -233 97 -263 9 -10 17 -24 18 -32 4 -27 63 -92 116 -128 76 -52 202 -100 263 -101 28 0 102 3 165 6 181 9 265 48 383 180 90 99 116 157 123 275 6 93 -1 156 -41 401 -3 17 -11 32 -17 32 -6 0 -9 -3 -5 -6 11 -12 -31 -79 -60 -95 -78 -44 -144 -31 -217 45 -58 60 -86 126 -86 206 l0 52 -67 -4 c-60 -5 -122 0 -215 17 -16 2 -29 3 -29 2z m-262 -720 c18 -16 30 -18 63 -13 35 5 40 4 40 -14 0 -23 -28 -40 -67 -40 -36 0 -99 60 -89 85 6 18 18 14 53 -18z m883 -1 c0 -28 -46 -81 -72 -84 -33 -4 -88 23 -88 43 0 11 11 14 43 13 31 -2 52 4 73 20 34 25 44 27 44 8z m-630 -47 c25 -9 41 -9 66 0 44 16 61 6 37 -21 -10 -11 -30 -26 -44 -34 -24 -12 -32 -11 -70 10 -24 12 -45 30 -47 39 -4 20 12 21 58 6z m364 -8 c4 -5 -6 -23 -20 -40 -30 -36 -69 -41 -115 -14 -55 33 -40 66 22 44 23 -8 38 -7 62 3 40 18 44 18 51 7z m-542 -96 c27 -19 50 -25 87 -25 52 0 67 -15 39 -37 -42 -33 -94 -20 -150 35 -59 56 -44 73 24 27z m701 -43 c-11 -14 -31 -35 -45 -45 -26 -19 -27 -19 -71 2 -25 12 -48 29 -51 37 -5 14 1 15 43 9 52 -7 94 7 122 41 13 16 14 16 17 -1 2 -10 -5 -29 -15 -43z m-401 -18 c27 -14 40 -15 81 -5 28 6 52 9 54 7 11 -11 -22 -49 -52 -61 -39 -17 -86 -7 -122 27 -45 43 -21 63 39 32z"/>
<path d="M1200 723 c-23 -8 -40 -34 -40 -60 0 -17 10 -27 36 -38 45 -19 49 -19 68 1 23 22 20 60 -6 84 -22 20 -31 23 -58 13z m30 -64 c0 -12 -7 -19 -19 -19 -26 0 -36 17 -21 35 15 18 40 8 40 -16z"/>
<path d="M712 704 c-23 -16 -32 -77 -12 -89 16 -10 47 4 47 20 0 8 -4 12 -9 9 -14 -9 -9 13 7 26 16 14 35 6 35 -16 0 -8 7 -14 15 -14 23 0 18 28 -10 55 -28 29 -42 31 -73 9z"/>
</g>
<g id="layer108" fill="#fdfbce" stroke="none">
<path d="M1029 1926 c-2 -2 -31 -7 -64 -10 -129 -11 -159 -26 -215 -102 -44 -59 -112 -114 -141 -114 -34 0 -66 -22 -92 -62 -30 -47 -41 -104 -35 -188 2 -32 1 -57 -4 -54 -9 6 -10 -8 -2 -30 3 -9 11 -16 16 -16 6 0 24 -12 41 -26 25 -21 36 -24 69 -19 33 6 38 4 38 -13 0 -23 -16 -38 -51 -47 -21 -5 -34 0 -64 27 l-38 33 17 -32 c18 -37 20 -47 6 -38 -6 4 -6 -5 1 -22 6 -15 12 -41 14 -56 2 -15 14 -42 27 -59 12 -18 16 -28 7 -23 -7 4 -3 -4 11 -19 28 -31 169 -106 199 -106 11 0 23 -5 26 -11 11 -16 329 -5 391 15 75 23 163 86 228 163 99 115 124 187 120 343 -2 123 -15 168 -63 221 -35 40 -41 43 -62 32 -81 -40 -136 -28 -209 46 -32 31 -62 72 -68 91 -8 24 -25 42 -52 58 -41 23 -44 24 -51 18z m394 -615 c-7 -29 -63 -91 -81 -91 -29 0 -82 38 -82 59 0 20 13 21 51 7 8 -4 30 4 50 18 42 30 69 33 62 7z m-577 -42 c68 31 87 -4 24 -45 -47 -31 -70 -28 -120 15 -28 25 -32 32 -21 40 10 6 28 4 53 -6 31 -12 45 -13 64 -4z m310 -11 c8 -12 -58 -78 -78 -78 -25 0 -93 46 -96 64 -4 17 1 18 50 12 30 -4 65 -2 78 3 33 13 38 13 46 -1z m-534 -96 c28 -18 48 -23 85 -21 37 2 47 -1 45 -12 -5 -23 -42 -49 -72 -49 -44 0 -149 87 -134 111 6 10 30 1 76 -29z m704 -20 c-25 -47 -72 -85 -98 -78 -38 9 -90 46 -85 59 4 12 14 12 72 1 24 -5 38 1 69 25 44 35 62 32 42 -7z m-401 -40 c20 -6 45 -5 78 3 43 11 47 10 47 -6 0 -24 -56 -69 -86 -69 -44 0 -114 48 -114 78 0 15 14 14 75 -6z"/>
<path d="M735 712 c-38 -7 -58 -57 -36 -91 11 -17 48 -6 48 14 0 8 -4 12 -9 9 -4 -3 -8 2 -8 11 0 8 7 18 15 21 18 7 47 -14 39 -27 -3 -5 -1 -9 5 -9 17 0 22 19 11 40 -13 25 -39 38 -65 32z"/>
<path d="M1177 702 c-30 -33 -21 -58 24 -76 39 -16 43 -16 60 0 11 9 19 27 19 39 0 48 -70 73 -103 37z m53 -28 c11 -12 10 -18 -3 -32 -16 -15 -18 -15 -34 0 -13 14 -14 20 -3 32 7 9 16 16 20 16 4 0 13 -7 20 -16z"/>
</g>


</svg>